<?xml version="1.0" encoding="utf-8"?>
<!-- Generator: Adobe Illustrator 18.0.0, SVG Export Plug-In . SVG Version: 6.00 Build 0)  -->
<!DOCTYPE svg PUBLIC "-//W3C//DTD SVG 1.1//EN" "http://www.w3.org/Graphics/SVG/1.1/DTD/svg11.dtd">
<svg version="1.1" id="Capa_1" xmlns="http://www.w3.org/2000/svg" xmlns:xlink="http://www.w3.org/1999/xlink" x="0px" y="0px"
	 viewBox="0 0 1360 841.9" enable-background="new 0 0 1360 841.9" xml:space="preserve">
<g>
	<g>
		<g>
			<path fill="#424242" d="M617.5,428.3c-12.2,0-22.2-9.9-22.2-22.2c0-12.2,9.9-22.2,22.2-22.2c8.3,0,15.9,4.6,19.7,12
				c0.7,1.3,0.2,3-1.2,3.7c-1.3,0.7-3,0.2-3.7-1.2c-2.9-5.6-8.6-9.1-14.9-9.1c-9.2,0-16.7,7.5-16.7,16.7c0,9.2,7.5,16.7,16.7,16.7
				c6.4,0,12.3-3.7,15.1-9.5c0.7-1.4,2.3-1.9,3.6-1.3c1.4,0.7,1.9,2.3,1.3,3.6C633.9,423.4,626,428.3,617.5,428.3z"/>
		</g>
		<path fill="#424242" d="M640.7,423.2c0,1.5,1.1,2.8,2.7,2.8h34.4c1.5,0,2.7-1.3,2.7-2.8c0-1.5-1.2-2.8-2.7-2.8h-30.2
			c-0.8,0-1.4-0.6-1.4-1.5h0v-8.5c0-0.9,0.7-1.6,1.5-1.6h12.6c1.5,0,2.7-1.2,2.7-2.7c0-1.5-1.2-2.7-2.7-2.7h-12.7
			c-0.8-0.3-1.4-0.9-1.4-1.8h0V393c0-0.9,0.7-1.7,1.6-1.7h30c1.5,0,2.7-1.2,2.7-2.7c0-1.5-1.2-2.7-2.7-2.7h-34.4
			c-1.5,0-2.7,1.3-2.7,2.8V423.2z"/>
		<path fill="#424242" d="M737.8,422l-17.2-34.4c-0.5-0.9-1.4-1.5-2.4-1.5c-1,0-2,0.6-2.4,1.5l-6.8,13.6c-0.9,1.8-2.2,2.1-3,2.1
			h-37.3c-1.5,0-2.7,1.2-2.7,2.7c0,1.5,1.2,2.7,2.7,2.7H686c0.9,0,1.4,0.8,1.4,1.6v30.1c0,1.5,1.3,2.7,2.8,2.7
			c1.5,0,2.8-1.2,2.8-2.7v-30.1l0,0c0-0.9,0.6-1.6,1.5-1.6h8.7c0.6,0,1.2,0.5,1.2,1.2c0,0.2-0.1,0.5-0.2,0.7l-5.7,11.4
			c-0.7,1.3-0.1,3,1.2,3.7c1.3,0.7,3,0.1,3.6-1.2l6.8-13.6v0c0,0,0.1-0.1,0.1-0.1l0.1-0.2c0.6-1.2,1.6-1.9,3.2-1.9h4.4
			c1.5,0,2.7-1.2,2.7-2.7c0-1.5-1.2-2.7-2.7-2.7h-1.2c-1.6,0-2.2-0.7-1.7-2c0,0,0,0,0,0c0,0,2.9-5.9,3-6c0.1-0.2,0.3-0.2,0.4,0
			c0,0.1,14.6,29.1,14.6,29.1c0.5,1,1.4,1.5,2.4,1.5c0.4,0,0.8-0.1,1.2-0.3C737.9,425,738.5,423.3,737.8,422z"/>
		<path fill="#424242" d="M762.9,385.8c-1.3-0.7-3-0.1-3.7,1.2c0,0-14.5,29-14.6,29.1c-0.1,0.2-0.3,0.2-0.4,0
			c-0.1-0.2-14.6-29.1-14.6-29.1c-0.7-1.3-2.3-1.9-3.7-1.2c-1.3,0.7-1.9,2.3-1.2,3.7l17.2,34.4c0.5,0.9,1.4,1.5,2.4,1.5
			c1,0,2-0.6,2.4-1.5l17.2-34.4C764.8,388.1,764.3,386.5,762.9,385.8z"/>
	</g>
	<g>
		<path fill="#424242" d="M701.3,430.5c-0.7,0-1.2,0.2-1.6,0.7c-0.4,0.5-0.6,1.1-0.6,1.9c0,0.9,0.2,1.5,0.5,2
			c0.4,0.4,0.9,0.7,1.6,0.7c0.3,0,0.5,0,0.8-0.1c0.3-0.1,0.5-0.1,0.8-0.2v1c-0.3,0.2-1.1,0.3-1.8,0.3c-1,0-1.8-0.3-2.3-0.9
			c-0.6-0.6-0.8-1.5-0.8-2.7c0-0.7,0.1-1.4,0.4-1.9c0.3-0.5,0.7-1,1.2-1.3c0.5-0.3,1.1-0.4,1.8-0.4c0.7,0,1.4,0.2,2,0.5l-0.4,1
			c-0.2-0.1-0.5-0.2-0.8-0.3C701.9,430.5,701.6,430.5,701.3,430.5z"/>
		<path fill="#424242" d="M706.6,436.7c-0.8,0-1.5-0.2-1.9-0.7c-0.5-0.5-0.7-1.1-0.7-2c0-0.9,0.2-1.6,0.7-2.1c0.4-0.5,1-0.7,1.8-0.7
			c0.7,0,1.2,0.2,1.7,0.6c0.4,0.4,0.6,1,0.6,1.8v0.5h-3.5c0,0.6,0.2,1,0.4,1.3c0.3,0.3,0.6,0.5,1.1,0.5c0.3,0,0.6,0,0.9-0.1
			c0.3-0.1,0.5-0.1,0.8-0.3v0.9c-0.3,0.1-0.5,0.2-0.8,0.3C707.2,436.7,706.9,436.7,706.6,436.7z M706.4,432c-0.4,0-0.6,0.2-0.9,0.4
			c-0.2,0.2-0.3,0.4-0.4,1h2.4c0-0.6-0.1-0.8-0.3-1C707,432.2,706.7,432,706.4,432z"/>
		<path fill="#424242" d="M714.6,436.5h-1.2v-3.1c0-0.4,0-0.7-0.2-0.9c-0.2-0.2-0.4-0.3-0.8-0.3c-0.5,0-0.8,0.1-1.1,0.4
			c-0.2,0.3-0.3,0.8-0.3,1.4v2.5h-1.2v-5.1h1l0.2,0.6h0.1c0.2-0.3,0.4-0.4,0.7-0.6c0.3-0.1,0.6-0.2,1-0.2c1.3,0,1.9,0.7,1.9,2V436.5
			z"/>
		<path fill="#424242" d="M718.2,435.8c0.3,0,0.6,0,0.9-0.1v0.9c-0.3,0.1-0.3,0.1-0.5,0.1c-0.2,0-0.4,0.1-0.6,0.1
			c-1.1,0-1.6-0.6-1.6-1.7v-2.7h-0.9v-0.6l0.8-0.4l0.4-1.1h0.6v1.2h1.8v0.9h-1.8v2.7c0,0.3,0.2,0.5,0.3,0.6
			C717.7,435.7,718,435.8,718.2,435.8z"/>
		<path fill="#424242" d="M723.1,431.2c0.2,0,0.4,0,0.6,0l-0.1,1.1c-0.2,0-0.3-0.1-0.5-0.1c-0.5,0-0.8,0.1-1.1,0.4
			c-0.3,0.3-0.4,0.7-0.4,1.2v2.6h-1.2v-5.1h1l0.1,0.9h0.1c0.2-0.3,0.4-0.6,0.7-0.8C722.4,431.3,722.8,431.2,723.1,431.2z"/>
		<path fill="#424242" d="M729.1,433.9c0,0.9-0.2,1.5-0.7,2c-0.4,0.5-1.1,0.7-1.9,0.7c-0.5,0-0.9-0.1-1.3-0.3
			c-0.4-0.2-0.7-0.5-0.9-1c-0.2-0.4-0.3-0.9-0.3-1.5c0-0.9,0.2-1.5,0.7-2c0.4-0.5,1.1-0.7,1.9-0.7c0.8,0,1.4,0.2,1.8,0.7
			C728.8,432.4,729.1,433.1,729.1,433.9z M725.2,433.9c0,1.2,0.5,1.8,1.4,1.8c0.9,0,1.3-0.6,1.3-1.8c0-1.2-0.5-1.8-1.4-1.8
			c-0.5,0-0.8,0.2-1,0.5C725.3,432.9,725.2,433.4,725.2,433.9z"/>
		<path fill="#424242" d="M734.3,436.7c-0.7,0-1.2-0.2-1.6-0.7c-0.4-0.5-0.6-1.2-0.6-2c0-0.9,0.2-1.6,0.6-2c0.4-0.5,0.9-0.7,1.6-0.7
			c0.7,0,1.2,0.2,1.6,0.8h0.1c-0.1-0.3-0.1-0.7-0.1-0.9V429h0.9v7.5h-0.6l-0.2-0.6h-0.1C735.5,436.5,735,436.7,734.3,436.7z
			 M734.6,435.8c0.5,0,0.8-0.1,1-0.4c0.2-0.3,0.3-0.7,0.3-1.3V434c0-0.7-0.1-1.1-0.3-1.4c-0.2-0.3-0.5-0.4-1-0.4
			c-0.4,0-0.7,0.2-0.9,0.5c-0.2,0.3-0.3,0.8-0.3,1.4c0,0.6,0.1,1,0.3,1.4C733.8,435.6,734.2,435.8,734.6,435.8z"/>
		<path fill="#424242" d="M740.7,436.7c-0.8,0-1.5-0.2-1.9-0.7c-0.5-0.5-0.7-1.1-0.7-2c0-0.9,0.2-1.6,0.7-2.1c0.4-0.5,1-0.7,1.8-0.7
			c0.7,0,1.1,0.2,1.5,0.6c0.4,0.4,0.5,1,0.5,1.8v0.5h-3.3c0,0.6,0.2,1,0.4,1.3c0.3,0.3,0.6,0.5,1.1,0.5c0.3,0,0.6,0,0.9-0.1
			c0.3-0.1,0.3-0.1,0.9-0.3v0.9c-0.3,0.1-0.5,0.2-0.8,0.3C741.3,436.7,741,436.7,740.7,436.7z M740.5,432c-0.4,0-0.6,0.2-0.9,0.4
			c-0.2,0.2-0.3,0.4-0.4,1h2.4c0-0.6-0.1-0.8-0.3-1C741.1,432.2,740.8,432,740.5,432z"/>
		<path fill="#424242" d="M701.1,446.9h-1.2v-6.3h-2.1v-0.9h5.4v0.9h-2.1V446.9z"/>
		<path fill="#424242" d="M705.8,446.9c-0.8,0-1.5-0.2-1.9-0.7c-0.5-0.5-0.7-1.1-0.7-2c0-0.9,0.2-1.6,0.7-2.1c0.4-0.5,1-0.7,1.8-0.7
			c0.7,0,1.2,0.2,1.6,0.6c0.4,0.4,0.5,1,0.5,1.8v0.7h-3.4c0,0.3,0.2,0.9,0.4,1.1c0.3,0.3,0.6,0.4,1.1,0.4c0.3,0,0.7,0,0.9-0.1
			c0.3-0.1,0.6-0.2,0.9-0.3v0.9c-0.3,0.1-0.6,0.2-0.9,0.3C706.5,446.9,706.2,446.9,705.8,446.9z M705.6,442.3
			c-0.4,0-0.6,0.1-0.9,0.4c-0.2,0.2-0.3,0.4-0.4,1h2.4c0-0.6-0.1-0.8-0.3-1C706.2,442.4,706,442.3,705.6,442.3z"/>
		<path fill="#424242" d="M711.3,446.9c-0.8,0-1.4-0.2-1.8-0.7c-0.4-0.5-0.6-1.1-0.6-2c0-0.9,0.2-1.6,0.7-2.1
			c0.4-0.5,1.1-0.7,1.9-0.7c0.6,0,1.1,0.1,1.5,0.3l-0.3,0.9c-0.5-0.2-0.9-0.3-1.2-0.3c-0.9,0-1.4,0.6-1.4,1.8c0,0.6,0.1,1,0.3,1.3
			c0.2,0.3,0.6,0.5,1,0.5c0.5,0,0.8-0.1,1.4-0.4v1c-0.3,0.1-0.4,0.2-0.7,0.3C711.9,446.9,711.6,446.9,711.3,446.9z"/>
		<path fill="#424242" d="M719.1,446.9h-1.2v-3.4c0-0.4-0.1-0.7-0.3-0.9c-0.2-0.2-0.4-0.3-0.8-0.3c-0.5,0-0.8,0.1-1,0.4
			c-0.2,0.3-0.3,0.8-0.3,1.4v2.8h-1.2v-5.4h0.9l0.2,0.6h0.1c0.2-0.3,0.4-0.4,0.7-0.6c0.3-0.1,0.7-0.2,1-0.2c1.3,0,2,0.7,2,2V446.9z"
			/>
		<path fill="#424242" d="M725.3,444.2c0,0.9-0.2,1.5-0.7,2c-0.4,0.5-1.1,0.7-1.9,0.7c-0.5,0-0.9-0.1-1.3-0.3
			c-0.4-0.2-0.7-0.5-0.9-1c-0.2-0.4-0.3-0.9-0.3-1.5c0-0.9,0.2-1.5,0.7-2c0.4-0.5,1.1-0.7,1.9-0.7c0.8,0,1.4,0.2,1.8,0.7
			C725.1,442.7,725.3,443.3,725.3,444.2z M721.5,444.2c0,1.2,0.5,1.8,1.4,1.8c0.9,0,1.3-0.6,1.3-1.8c0-1.2-0.5-1.8-1.4-1.8
			c-0.5,0-0.8,0.2-1,0.5C721.6,443.1,721.5,443.6,721.5,444.2z"/>
		<path fill="#424242" d="M727.8,446.9h-1.2v-7.5h1.2V446.9z"/>
		<path fill="#424242" d="M734.1,444.2c0,0.9-0.2,1.5-0.7,2c-0.4,0.5-1.1,0.7-1.9,0.7c-0.5,0-0.9-0.1-1.3-0.3
			c-0.4-0.2-0.7-0.5-0.9-1c-0.2-0.4-0.3-0.9-0.3-1.5c0-0.9,0.2-1.5,0.7-2c0.4-0.5,1.1-0.7,1.9-0.7c0.8,0,1.4,0.2,1.8,0.7
			C733.9,442.7,734.1,443.3,734.1,444.2z M730.2,444.2c0,1.2,0.5,1.8,1.4,1.8c0.9,0,1.3-0.6,1.3-1.8c0-1.2-0.5-1.8-1.4-1.8
			c-0.5,0-0.8,0.2-1,0.5C730.3,443.1,730.2,443.6,730.2,444.2z"/>
		<path fill="#424242" d="M740.4,441.6v0.6l-1,0.2c0.1,0.1,0.1,0.3,0.2,0.4c0.1,0.2,0.1,0.3,0.1,0.5c0,0.5-0.2,1-0.6,1.3
			c-0.4,0.3-0.9,0.5-1.6,0.5c-0.2,0-0.3,0-0.5,0c-0.2,0.2-0.4,0.3-0.4,0.5c0,0.1,0.1,0.2,0.2,0.2c0.1,0.1,0.3,0,0.6,0h0.9
			c0.6,0,1,0.2,1.3,0.4c0.3,0.3,0.5,0.6,0.5,1.1c0,0.6-0.2,1.1-0.7,1.4c-0.5,0.3-1.2,0.5-2.2,0.5c-0.7,0-1.3-0.1-1.7-0.4
			c-0.4-0.3-0.6-0.6-0.6-1.1c0-0.3,0.1-0.6,0.3-0.8c0.2-0.2,0.5-0.4,0.9-0.5c-0.2-0.1-0.3-0.2-0.4-0.3c-0.1-0.1-0.1-0.3-0.1-0.5
			c0-0.2,0.1-0.4,0.2-0.5c0.1-0.1,0.3-0.3,0.5-0.4c-0.3-0.1-0.5-0.3-0.7-0.6c-0.2-0.3-0.3-0.6-0.3-0.9c0-0.6,0.2-1,0.5-1.3
			c0.4-0.3,0.9-0.5,1.6-0.5c0.2,0,0.3,0,0.5,0.1c0.2,0,0.3,0.1,0.4,0.1H740.4z M736,447.7c0,0.2,0.1,0.4,0.3,0.6
			c0.2,0.1,0.5,0.2,0.9,0.2c0.6,0,1.1-0.1,1.4-0.3c0.3-0.2,0.5-0.4,0.5-0.7c0-0.2-0.1-0.3-0.2-0.4c-0.2-0.1-0.5-0.1-0.9-0.1h-0.9
			c-0.3,0-0.6,0-0.8,0.2C736.1,447.3,736,447.4,736,447.7z M736.5,443.2c0,0.3,0.1,0.6,0.3,0.8c0.2,0.2,0.4,0.3,0.7,0.3
			c0.7,0,1-0.4,1-1.1c0-0.3-0.1-0.6-0.2-0.8c-0.2-0.2-0.4-0.3-0.7-0.3c-0.3,0-0.6,0.1-0.7,0.3C736.6,442.6,736.5,442.9,736.5,443.2z
			"/>
		<path fill="#424242" d="M741.6,441v-0.2c0-0.2,0.3-0.5,0.5-0.8c0.2-0.3,0.3-0.5,0.4-0.8h1.2v0.2c0,0.2-0.3,0.5-0.7,0.8
			c-0.3,0.3-0.5,0.5-0.8,0.8H741.6z M742.8,446.9h-1.2v-5.4h1.2V446.9z"/>
		<path fill="#424242" d="M747.9,446.9l-0.2-0.9h0c-0.3,0.3-0.5,0.6-0.8,0.7c-0.3,0.1-0.6,0.2-1,0.2c-0.5,0-0.9-0.1-1.2-0.4
			c-0.3-0.3-0.4-0.7-0.4-1.2c0-0.5,0.2-1,0.6-1.2c0.4-0.3,1-0.4,1.8-0.5l0.9,0v-0.3c0-0.3-0.1-0.6-0.2-0.8c-0.2-0.2-0.4-0.3-0.7-0.3
			c-0.3,0-0.5,0-0.8,0.1c-0.3,0.1-0.5,0.2-0.7,0.3l-0.4-0.8c0.3-0.2,0.6-0.3,0.9-0.3c0.3-0.1,0.7-0.1,1-0.1c0.7,0,1.2,0.1,1.6,0.4
			c0.3,0.3,0.5,0.8,0.5,1.4v3.7H747.9z M746.2,446.1c0.4,0,0.7-0.1,1-0.3c0.2-0.2,0.4-0.6,0.4-1v-0.5l-0.7,0c-0.5,0-0.9,0.1-1.2,0.3
			c-0.2,0.2-0.4,0.4-0.4,0.7c0,0.2,0.1,0.4,0.2,0.6C745.7,446,745.9,446.1,746.2,446.1z"/>
		<path fill="#424242" d="M752.6,441.6h1.2l1.1,3c0.2,0.4,0.3,0.9,0.3,1.2h0c0-0.3,0.1-0.4,0.2-0.6c0.1-0.3,0.5-1.5,1.2-3.6h1.2
			l-2.3,6c-0.4,1.1-1,1.6-2,1.6c-0.3,0-0.4,0-0.7-0.1v-0.9c0,0,0.3,0.1,0.5,0.1c0.5,0,0.9-0.3,1.1-0.9l0.2-0.5L752.6,441.6z"/>
		<path fill="#424242" d="M703.3,457.7l-0.7-2.1h-2.7l-0.7,2.1H698l2.6-7.2h1.3l2.6,7.2H703.3z M702.2,454.7l-0.7-1.9
			c0-0.1-0.1-0.3-0.2-0.6c-0.1-0.3-0.1-0.5-0.2-0.6c-0.1,0.4-0.2,0.8-0.4,1.3l-0.6,1.8H702.2z"/>
		<path fill="#424242" d="M708,452.3c0.2,0,0.4,0,0.6,0l-0.1,1.1c-0.2,0-0.3-0.1-0.5-0.1c-0.5,0-0.8,0.1-1.1,0.4
			c-0.3,0.3-0.4,0.7-0.4,1.2v2.8h-1.2v-5.4h0.9l0.1,0.9h0.1c0.2-0.3,0.4-0.5,0.7-0.7C707.4,452.3,707.7,452.3,708,452.3z"/>
		<path fill="#424242" d="M712.2,456.9c0.3,0,0.6,0,0.9-0.1v0.9c-0.3,0.1-0.4,0.1-0.6,0.1c-0.2,0-0.5,0.1-0.7,0.1
			c-1.1,0-1.7-0.6-1.7-1.7v-2.9h-0.6v-0.5l0.8-0.4l0.4-1.2h0.6v1.2h1.5v0.9h-1.5v2.9c0,0.3,0.1,0.5,0.3,0.6
			C711.7,456.8,712,456.9,712.2,456.9z"/>
		<path fill="#424242" d="M716.4,457.8c-0.8,0-1.5-0.2-1.9-0.7c-0.5-0.5-0.7-1.1-0.7-2c0-0.9,0.2-1.6,0.7-2.1c0.4-0.5,1-0.7,1.8-0.7
			c0.7,0,1.3,0.2,1.7,0.6c0.4,0.4,0.6,1,0.6,1.8v0.6h-3.6c0,0.6,0.2,0.9,0.4,1.2c0.3,0.3,0.6,0.4,1.1,0.4c0.3,0,0.6,0,0.9-0.1
			c0.3-0.1,0.6-0.2,0.9-0.3v0.9c-0.3,0.1-0.6,0.2-0.8,0.3C717.1,457.8,716.7,457.8,716.4,457.8z M716.2,453.1
			c-0.4,0-0.6,0.1-0.9,0.3c-0.2,0.2-0.3,0.7-0.4,1h2.4c0-0.3-0.1-0.7-0.3-1C716.8,453.2,716.5,453.1,716.2,453.1z"/>
		<path fill="#424242" d="M723.3,456.2c0,0.5-0.2,0.9-0.6,1.2c-0.4,0.3-0.9,0.4-1.6,0.4c-0.7,0-1.4-0.1-1.7-0.3v-1
			c0.6,0.3,1.2,0.4,1.8,0.4c0.7,0,1-0.2,1-0.6c0-0.1,0-0.2-0.1-0.3c-0.1-0.1-0.2-0.2-0.4-0.3c-0.2-0.1-0.4-0.2-0.7-0.3
			c-0.6-0.2-1-0.5-1.2-0.7c-0.2-0.2-0.3-0.5-0.3-0.9c0-0.5,0.2-0.8,0.6-1.1c0.4-0.3,0.9-0.4,1.5-0.4c0.6,0,1.2,0.1,1.8,0.4l-0.4,0.9
			c-0.6-0.2-1.1-0.4-1.5-0.4c-0.6,0-0.9,0.2-0.9,0.5c0,0.2,0.1,0.3,0.2,0.4c0.2,0.1,0.5,0.3,1,0.5c0.4,0.2,0.8,0.3,1,0.5
			c0.2,0.1,0.3,0.3,0.4,0.5C723.3,455.7,723.3,455.9,723.3,456.2z"/>
		<path fill="#424242" d="M731.5,450.5h1.2l-2.5,7.2H729l-2.5-7.2h1.2l1.5,4.4c0.1,0.2,0.2,0.5,0.2,0.8c0.1,0.3,0.1,0.6,0.2,0.8
			c0-0.2,0.1-0.5,0.2-0.8c0.1-0.3,0.2-0.6,0.2-0.8L731.5,450.5z"/>
		<path fill="#424242" d="M733.8,451c0-0.2,0.1-0.4,0.2-0.5c0.1-0.1,0.3-0.2,0.5-0.2c0.2,0,0.4,0.1,0.5,0.2c0.1,0.1,0.2,0.3,0.2,0.5
			c0,0.2-0.1,0.3-0.2,0.5c-0.1,0.1-0.3,0.2-0.5,0.2c-0.2,0-0.4-0.1-0.5-0.2C733.8,451.3,733.8,451.2,733.8,451z M735,457.7h-1.2
			v-5.4h1.2V457.7z"/>
		<path fill="#424242" d="M740.2,456.2c0,0.5-0.2,0.9-0.6,1.2c-0.4,0.3-1,0.4-1.7,0.4c-0.7,0-1.2-0.1-1.8-0.3v-1
			c0.6,0.3,1.3,0.4,1.8,0.4c0.7,0,1.1-0.2,1.1-0.6c0-0.1,0-0.2-0.1-0.3c-0.1-0.1-0.2-0.2-0.4-0.3c-0.2-0.1-0.4-0.2-0.7-0.3
			c-0.6-0.2-1-0.5-1.2-0.7c-0.2-0.2-0.3-0.5-0.3-0.9c0-0.5,0.2-0.8,0.6-1.1c0.4-0.3,0.9-0.4,1.5-0.4c0.6,0,1.2,0.1,1.8,0.4l-0.4,0.9
			c-0.6-0.2-1.1-0.4-1.5-0.4c-0.6,0-0.9,0.2-0.9,0.5c0,0.2,0.1,0.3,0.2,0.4c0.2,0.1,0.5,0.3,1,0.5c0.4,0.2,0.8,0.3,1,0.5
			c0.2,0.1,0.3,0.3,0.4,0.5C740.1,455.7,740.2,455.9,740.2,456.2z"/>
		<path fill="#424242" d="M745.2,457.7l-0.2-0.6h-0.1c-0.2,0-0.4,0.4-0.7,0.5c-0.3,0.1-0.6,0.2-1,0.2c-0.6,0-1.2-0.2-1.5-0.5
			c-0.3-0.3-0.5-0.8-0.5-1.5v-3.5h1.2v3.3c0,0.4,0.1,0.7,0.3,0.9c0.2,0.2,0.4,0.3,0.8,0.3c0.5,0,0.8-0.1,1-0.4
			c0.2-0.3,0.3-0.8,0.3-1.4v-2.7h1.2v5.4H745.2z"/>
		<path fill="#424242" d="M751,457.7l-0.2-0.9h0c-0.3,0.6-0.5,0.6-0.8,0.7c-0.3,0.1-0.6,0.2-1,0.2c-0.5,0-0.9-0.1-1.2-0.4
			c-0.3-0.3-0.4-0.7-0.4-1.2c0-0.5,0.2-1,0.6-1.2c0.4-0.3,1-0.4,1.8-0.5l0.8,0v-0.3c0-0.3,0-0.6-0.2-0.8c-0.2-0.2-0.4-0.3-0.7-0.3
			c-0.3,0-0.5,0-0.8,0.1c-0.3,0.1-0.5,0.2-0.7,0.3l-0.4-0.8c0.3-0.2,0.6-0.3,1-0.3c0.3-0.1,0.7-0.1,1-0.1c0.7,0,1.2,0.1,1.5,0.4
			c0.3,0.3,0.5,0.8,0.5,1.4v3.6H751z M749.3,456.9c0.4,0,0.7-0.1,0.9-0.3c0.2-0.2,0.3-0.6,0.3-1v-0.5l-0.6,0c-0.5,0-0.9,0.1-1.1,0.3
			c-0.2,0.2-0.3,0.4-0.3,0.7c0,0.2,0.1,0.4,0.2,0.6C748.8,456.9,749,456.9,749.3,456.9z"/>
		<path fill="#424242" d="M753.8,457.7h-0.9v-7.5h0.9V457.7z"/>
		<path fill="#424242" d="M757.6,457.8c-0.8,0-1.5-0.2-1.9-0.7c-0.5-0.5-0.7-1.1-0.7-2c0-0.9,0.2-1.6,0.7-2.1c0.4-0.5,1-0.7,1.8-0.7
			c0.7,0,1.2,0.2,1.6,0.6c0.4,0.4,0.6,1,0.6,1.8v0.6h-3.4c0,0.6,0.2,0.9,0.4,1.2c0.3,0.3,0.6,0.4,1.1,0.4c0.3,0,0.7,0,1-0.1
			c0.3-0.1,0.3-0.2,0.9-0.3v0.9c-0.3,0.1-0.6,0.2-0.9,0.3C758.3,457.8,757.9,457.8,757.6,457.8z M757.4,453.1
			c-0.4,0-0.6,0.1-0.9,0.3c-0.2,0.2-0.3,0.7-0.4,1h2.4c0-0.3-0.1-0.7-0.3-1C758,453.2,757.7,453.1,757.4,453.1z"/>
		<path fill="#424242" d="M764.5,456.2c0,0.5-0.2,0.9-0.6,1.2c-0.4,0.3-0.9,0.4-1.6,0.4c-0.7,0-1.4-0.1-1.7-0.3v-1
			c0.6,0.3,1.2,0.4,1.7,0.4c0.7,0,1-0.2,1-0.6c0-0.1-0.1-0.2-0.1-0.3c-0.1-0.1-0.2-0.2-0.4-0.3c-0.2-0.1-0.4-0.2-0.7-0.3
			c-0.6-0.2-1-0.5-1.2-0.7c-0.2-0.2-0.3-0.5-0.3-0.9c0-0.5,0.2-0.8,0.6-1.1c0.4-0.3,0.9-0.4,1.5-0.4c0.6,0,1.2,0.1,1.8,0.4l-0.4,0.9
			c-0.6-0.2-1.1-0.4-1.4-0.4c-0.6,0-0.9,0.2-0.9,0.5c0,0.2,0.1,0.3,0.2,0.4c0.2,0.1,0.5,0.3,1,0.5c0.4,0.2,0.8,0.3,1,0.5
			c0.2,0.1,0.3,0.3,0.4,0.5C764.5,455.7,764.5,455.9,764.5,456.2z"/>
	</g>
</g>
</svg>
