<?xml version="1.0" encoding="utf-8"?>
<!-- Generator: Adobe Illustrator 19.1.0, SVG Export Plug-In . SVG Version: 6.00 Build 0)  -->
<svg version="1.1" id="Capa_1" xmlns="http://www.w3.org/2000/svg" xmlns:xlink="http://www.w3.org/1999/xlink" x="0px" y="0px"
	 viewBox="0 0 595.3 841.9" style="enable-background:new 0 0 595.3 841.9;" xml:space="preserve">
<style type="text/css">
	.st0{clip-path:url(#SVGID_2_);}
	.st1{fill:#F7F7F7;}
</style>
<g>
	<defs>
		<rect id="SVGID_1_" x="239" y="339.3" width="116.3" height="163.8"/>
	</defs>
	<clipPath id="SVGID_2_">
		<use xlink:href="#SVGID_1_"  style="overflow:visible;"/>
	</clipPath>
	<g class="st0">
		<defs>
			<rect id="SVGID_3_" x="239" y="339.3" width="116.2" height="163.8"/>
		</defs>
		<clipPath id="SVGID_4_">
			<use xlink:href="#SVGID_3_"  style="overflow:visible;"/>
		</clipPath>
	</g>
</g>
<path class="st1" d="M325.7,388.2h-57.3c-2.1,0-3.8,1.7-3.8,3.8v57.3c0,2.1,1.7,3.8,3.8,3.8h57.3c2.1,0,3.8-1.7,3.8-3.8V392
	C329.5,389.9,327.8,388.2,325.7,388.2 M317.3,411.4c-2.3,12.9-15.1,23.8-19,26.3c-3.9,2.5-7.4-1-8.6-3.6c-1.5-3-5.8-19.4-7-20.7
	c-1.1-1.3-4.6,1.4-4.6,1.4l-1.7-2.2c0,0,7-8.3,12.3-9.4c5.6-1.1,5.6,8.6,7,14.1c1.3,5.2,2.2,8.2,3.3,8.2c1.1,0,3.3-2.9,5.7-7.4
	c2.4-4.5-0.1-8.4-4.8-5.6C301.9,401.2,319.6,398.4,317.3,411.4"/>
</svg>
